<svg width="45" height="44" viewBox="0 0 45 44" fill="none" xmlns="http://www.w3.org/2000/svg">
<path d="M18.5449 24.0652H21.1816V26.5895H23.8184V16.4922H15.9082V26.5895H18.5449V24.0652ZM21.1816 19.0165V21.5408H18.5449V19.0165H21.1816Z" fill="#2F28E8"/>
<path d="M26.4551 16.4922H29.0918V26.5895H26.4551V16.4922Z" fill="#2F28E8"/>
<path d="M45 22.8031V20.2787H35.6836V17.7544H42.3633V15.2301H35.6836V10.1814H29.0918V2.52433H26.4551V10.1814H23.8184V0H21.1816V10.1814H18.5449V2.52433H15.9082V10.1814H9.31641V15.2301H2.63672V17.7544H9.31641V20.2787H0V22.8031H9.31641V25.3274H2.63672V27.8517H9.31641V32.9004H15.9082V40.5575H18.5449V32.9004H21.1816V43.0818H23.8184V32.9004H26.4551V40.5575H29.0918V32.9004H35.6836V27.8517H42.3633V25.3274H35.6836V22.8031H45ZM33.0469 30.3761H11.9531V12.7058H33.0469V30.3761Z" fill="#2F28E8"/>
</svg>
