<svg width="60" height="60" viewBox="0 0 60 60" fill="none" xmlns="http://www.w3.org/2000/svg">
<g clip-path="url(#clip0)">
<path d="M30 10.6641C27.0922 10.6641 24.7266 13.0297 24.7266 15.9375C24.7266 18.8453 27.0922 21.2109 30 21.2109C32.9078 21.2109 35.2734 18.8453 35.2734 15.9375C35.2734 13.0297 32.9078 10.6641 30 10.6641ZM30 17.6953C29.0307 17.6953 28.2422 16.9068 28.2422 15.9375C28.2422 14.9682 29.0307 14.1797 30 14.1797C30.9693 14.1797 31.7578 14.9682 31.7578 15.9375C31.7578 16.9068 30.9693 17.6953 30 17.6953Z" fill="black"/>
<path d="M52.8516 40.5469C52.8516 35.7006 48.9088 31.7578 44.0625 31.7578H35.2734V27.0129C35.8635 26.7286 36.4212 26.4039 36.9524 26.0351L41.0455 28.4428L46.3221 19.2615L42.2623 16.9302C42.2909 16.5908 42.3046 16.2634 42.3046 15.9375C42.3046 15.6116 42.2909 15.2843 42.2623 14.9448L46.3221 12.6135L41.0455 3.43219L36.9524 5.83992C36.4212 5.47113 35.8635 5.14641 35.2734 4.86211V0H24.7266V4.86211C24.1365 5.14641 23.5788 5.47113 23.0476 5.83992L18.9545 3.43219L13.6779 12.6135L17.7377 14.9448C17.7091 15.2842 17.6954 15.6116 17.6954 15.9375C17.6954 16.2634 17.7091 16.5907 17.7377 16.9302L13.6779 19.2615L18.9545 28.4428L23.0476 26.0351C23.5788 26.4039 24.1365 26.7286 24.7266 27.0129V31.7578H15.9375C11.0912 31.7578 7.14844 35.7006 7.14844 40.5469V60H52.8516V40.5469ZM27.1559 56.4844H17.6953V42.3047H14.1797V56.4844H10.6641V40.5469C10.6641 37.6391 13.0297 35.2734 15.9375 35.2734H25.7563L28.0549 37.5721L24.6221 51.4172L27.1559 56.4844ZM30 54.3116L28.3466 51.0047L30 44.3358L31.6534 51.0047L30 54.3116ZM31.7578 32.7875L30 34.5453L28.2422 32.7875V24.6293C27.4689 24.2939 25.9601 23.9858 24.3237 22.5833L23.3705 21.7664L20.2331 23.612L18.4785 20.5589L21.5638 18.7871C21.4234 17.8528 21.2109 16.9915 21.2109 15.9375C21.2109 14.8835 21.4234 14.0222 21.5638 13.088L18.4785 11.3162L20.2331 8.26313L23.3705 10.1087C24.0592 9.58195 24.9861 8.4552 27.0964 7.67133L28.2422 7.2457V3.51445H31.7578V7.2457L32.9036 7.67133C35.0196 8.4573 35.9494 9.58852 36.6295 10.1087L39.7669 8.26313L41.5215 11.3162L38.4362 13.088C38.5766 14.0222 38.7891 14.8835 38.7891 15.9375C38.7891 16.9915 38.5766 17.8528 38.4362 18.787L41.5215 20.5588L39.7669 23.6119L36.6295 21.7663L35.6763 22.5832C34.0371 23.9883 32.5198 24.2988 31.7578 24.6293V32.7875ZM49.3359 56.4844H45.8203V42.3047H42.3047V56.4844H32.8441L35.3777 51.4172L31.9451 37.5721L34.2437 35.2734H44.0625C46.9703 35.2734 49.3359 37.6391 49.3359 40.5469V56.4844Z" fill="black"/>
</g>
<defs>
<clipPath id="clip0">
<rect width="60" height="60" fill="white"/>
</clipPath>
</defs>
</svg>
