<svg width="45" height="44" viewBox="0 0 45 44" fill="none" xmlns="http://www.w3.org/2000/svg">
<g clip-path="url(#clip0)">
<path d="M22.5 9.45874C15.4294 9.45874 9.67703 15.0814 9.67703 21.9925C9.67703 28.9036 15.4294 34.5262 22.5 34.5262C29.5706 34.5262 35.323 28.9036 35.323 21.9925C35.323 15.0814 29.5706 9.45874 22.5 9.45874ZM22.5 31.9503C16.8826 31.9503 12.3124 27.4832 12.3124 21.9925C12.3124 16.5017 16.8826 12.0347 22.5 12.0347C28.1175 12.0347 32.6876 16.5017 32.6876 21.9925C32.6876 27.4832 28.1175 31.9503 22.5 31.9503Z" fill="#2F28E8"/>
<path d="M45 27.0891V16.8958H40.4288C40.0481 15.6137 39.524 14.3789 38.863 13.2062L42.0969 10.0453L34.7229 2.83759L31.489 5.99854C30.2893 5.35249 29.026 4.84031 27.7142 4.46817V0H17.2857V4.46817C15.974 4.84022 14.7107 5.35249 13.511 5.99854L10.2771 2.83759L2.90307 10.0453L6.13697 13.2062C5.47601 14.3789 4.95201 15.6137 4.57128 16.8958H0V27.0891H4.57128C4.95201 28.3712 5.47601 29.6061 6.13697 30.7786L2.90307 33.9396L10.2771 41.1473L13.511 37.9863C14.7107 38.6324 15.974 39.1446 17.2857 39.5167V43.9849H27.7142V39.5167C29.026 39.1446 30.2893 38.6324 31.489 37.9863L34.7229 41.1473L42.0969 33.9396L38.863 30.7786C39.524 29.606 40.0481 28.3712 40.4288 27.0891H45ZM38.3699 33.9397L34.7228 37.5045L31.8897 34.7352L31.0003 35.28C29.4846 36.2085 27.8365 36.8766 26.1017 37.2658L25.0787 37.4952V41.409H19.921V37.4952L18.898 37.2658C17.1632 36.8766 15.5151 36.2085 13.9995 35.28L13.1102 34.7352L10.277 37.5045L6.62997 33.9397L9.46311 31.1704L8.90572 30.3011C7.95584 28.8197 7.2723 27.2088 6.87418 25.5131L6.63945 24.5132H2.6354V19.4718H6.63954L6.87427 18.4719C7.27239 16.7763 7.95592 15.1653 8.90581 13.6839L9.4632 12.8146L6.63005 10.0454L10.2771 6.48059L13.1102 9.24983L13.9996 8.70501C15.5154 7.77647 17.1635 7.10835 18.8981 6.7193L19.9211 6.48986V2.57596H25.0788V6.48978L26.1018 6.71921C27.8366 7.10835 29.4847 7.77647 31.0004 8.70493L31.8898 9.24974L34.7229 6.4805L38.37 10.0453L35.5367 12.8145L36.0942 13.6839C37.0442 15.1653 37.7277 16.7763 38.1258 18.4719L38.3606 19.4718H42.3647V24.5132H38.3606L38.1258 25.5131C37.7277 27.2088 37.0442 28.8196 36.0942 30.3011L35.5367 31.1705L38.3699 33.9397Z" fill="#2F28E8"/>
<path d="M27.589 18.634C27.1333 19.0795 26.3918 19.0795 25.9359 18.634C25.4802 18.1885 25.4802 17.4637 25.9359 17.0183L26.9108 16.0654L25.0473 14.2439L24.0724 15.1968C22.9165 16.3266 22.6617 18.0084 23.3073 19.382L19.8293 22.7815C18.4241 22.1505 16.7034 22.3996 15.5475 23.5294L14.5727 24.4823L16.4363 26.3038L17.4111 25.3508C17.6319 25.135 17.9254 25.0162 18.2377 25.0162C18.5499 25.0162 18.8434 25.135 19.0643 25.3508C19.285 25.5666 19.4066 25.8536 19.4066 26.1587C19.4066 26.4639 19.285 26.7509 19.0643 26.9666L18.0894 27.9194L19.9529 29.7409L20.9278 28.788C22.0837 27.6583 22.3385 25.9764 21.6929 24.6029L25.1709 21.2033C25.6745 21.4294 26.2185 21.5427 26.7626 21.5427C27.7368 21.5427 28.711 21.1803 29.4526 20.4553L30.4275 19.5024L28.564 17.6809L27.589 18.634Z" fill="#2F28E8"/>
</g>
<defs>
<clipPath id="clip0">
<rect width="45" height="43.985" fill="white"/>
</clipPath>
</defs>
</svg>
