<svg width="60" height="60" viewBox="0 0 60 60" fill="none" xmlns="http://www.w3.org/2000/svg">
<g clip-path="url(#clip0)">
<path d="M37.0684 0.0441895C24.4239 0.0441895 14.1368 10.3313 14.1368 22.9758C14.1368 28.6419 16.2036 33.8337 19.6213 37.8396L16.7581 40.7029L14.2635 38.2082L0 52.4717L7.48393 59.9556L21.7474 45.6922L19.2528 43.1976L22.1087 40.3417C26.1273 43.8084 31.3573 45.9075 37.0685 45.9075C49.713 45.9075 60.0001 35.6204 60.0001 22.9759C60.0001 10.3314 49.713 0.0441895 37.0684 0.0441895ZM7.48393 54.9663L4.98933 52.4717L14.2635 43.1976L16.7581 45.6922L7.48393 54.9663ZM37.0684 42.3794C26.3692 42.3794 17.6647 33.675 17.6647 22.9758C17.6647 12.2765 26.3692 3.57213 37.0684 3.57213C47.7676 3.57213 56.4721 12.2766 56.4721 22.9758C56.4721 33.675 47.7677 42.3794 37.0684 42.3794Z" fill="black"/>
<path d="M42.3603 10.6277H31.7765V19.4475H24.7206V31.7953H49.4162V15.9196H42.3603V10.6277ZM31.7765 28.2674H28.2485V22.9755H31.7765V28.2674ZM38.8324 28.2674H35.3044V19.4475V14.1556H38.8324V15.9196V28.2674ZM45.8882 19.4475V28.2674H42.3603V19.4475H45.8882Z" fill="black"/>
</g>
<defs>
<clipPath id="clip0">
<rect width="60" height="60" fill="white"/>
</clipPath>
</defs>
</svg>
