<svg width="60" height="54" viewBox="0 0 60 54" fill="none" xmlns="http://www.w3.org/2000/svg">
<path d="M24.8024 28.7468V25.2312H22.4049C22.251 24.6606 22.0238 24.1202 21.7346 23.6194L23.4318 21.9222L20.9459 19.4363L19.2487 21.1335C18.748 20.8443 18.2074 20.6171 17.6369 20.4632V18.0657H14.1212V20.4632C13.5506 20.6171 13.0102 20.8443 12.5094 21.1335L10.8122 19.4363L8.32619 21.9222L10.0235 23.6195C9.73432 24.1202 9.50709 24.6606 9.35322 25.2312H6.95557V28.7468H9.35322C9.50709 29.3174 9.73432 29.8579 10.0235 30.3585L8.32619 32.0559L10.8121 34.5418L12.5094 32.8444C13.0101 33.1336 13.5505 33.3609 14.1212 33.5147V35.9124H17.6369V33.5147C18.2076 33.3609 18.7479 33.1336 19.2487 32.8444L20.946 34.5418L23.4319 32.0559L21.7347 30.3586C22.0239 29.858 22.2511 29.3175 22.405 28.7468H24.8024ZM15.879 30.2324C14.0906 30.2324 12.6356 28.7774 12.6356 26.989C12.6356 25.2006 14.0906 23.7456 15.879 23.7456C17.6676 23.7456 19.1226 25.2006 19.1226 26.989C19.1226 28.7774 17.6674 30.2324 15.879 30.2324Z" fill="black"/>
<path d="M35.1978 25.2312V28.7468H37.5954C37.7493 29.3174 37.9765 29.8579 38.2657 30.3585L36.5684 32.0559L39.0543 34.5418L40.7516 32.8444C41.2522 33.1336 41.7927 33.3609 42.3634 33.5147V35.9124H45.879V33.5147C46.4497 33.3609 46.9901 33.1336 47.4908 32.8444L49.1882 34.5418L51.6741 32.0559L49.9769 30.3586C50.2661 29.858 50.4933 29.3175 50.6472 28.7468H53.0447V25.2312H50.6472C50.4933 24.6606 50.2661 24.1202 49.9769 23.6194L51.6741 21.9222L49.1882 19.4363L47.491 21.1335C46.9903 20.8443 46.4497 20.6171 45.8792 20.4632V18.0657H42.3635V20.4632C41.7929 20.6171 41.2525 20.8443 40.7517 21.1335L39.0545 19.4363L36.5686 21.9222L38.266 23.6195C37.9767 24.1202 37.7495 24.6606 37.5956 25.2312H35.1978ZM44.1212 23.7456C45.9097 23.7456 47.3647 25.2006 47.3647 26.989C47.3647 28.7774 45.9097 30.2324 44.1212 30.2324C42.3328 30.2324 40.8778 28.7774 40.8778 26.989C40.8778 25.2006 42.3328 23.7456 44.1212 23.7456Z" fill="black"/>
<path d="M59.9946 26.5935C59.8873 22.4245 58.1578 18.5263 55.1251 15.6172C52.1104 12.7252 48.148 11.1326 43.9678 11.1326C42.7478 11.1326 41.7552 10.1401 41.7552 8.92015V5.93668L43.876 7.53582L45.9927 4.72883L39.9924 0.204346L34.0431 4.73375L36.1729 7.53089L38.2397 5.9573V8.92015C38.2397 12.0787 40.8094 14.6483 43.968 14.6483C50.6963 14.6483 56.3093 20.0476 56.4802 26.6841C56.5669 30.0514 55.3225 33.2319 52.976 35.6395C50.6285 38.0482 47.4838 39.3748 44.1211 39.3748C37.304 39.3748 31.7579 33.8287 31.7579 27.0115V26.9889C31.7579 18.2333 24.6346 11.11 15.879 11.11C11.5602 11.11 7.52131 12.8137 4.50644 15.9072C1.49261 18.9997 -0.10582 23.0838 0.00550791 27.4069C0.112851 31.576 1.8423 35.4741 4.87499 38.3833C7.88987 41.2751 11.8522 42.8678 16.0324 42.8678C17.2523 42.8678 18.2449 43.8604 18.2449 45.0804V48.0568L16.1334 46.4647L14.0167 49.2717L20.017 53.7962L25.9661 49.2668L23.8365 46.4697L21.7604 48.0503V45.0804C21.7604 41.9218 19.1907 39.3522 16.0322 39.3522C9.30385 39.3522 3.69081 33.953 3.51995 27.3164C3.43324 23.9491 4.67765 20.7686 7.02409 18.3609C9.37158 15.9522 12.5163 14.6256 15.879 14.6256C22.6961 14.6256 28.2423 20.1718 28.2423 26.9889V27.0115C28.2423 35.7672 35.3655 42.8904 44.1211 42.8904C48.4399 42.8904 52.4788 41.1867 55.4937 38.0932C58.5075 35.0008 60.1059 30.9167 59.9946 26.5935Z" fill="black"/>
</svg>
