<svg width="60" height="60" viewBox="0 0 60 60" fill="none" xmlns="http://www.w3.org/2000/svg">
<path d="M49.4118 16.5565V10.5882H42.3529V3.52941H31.7647V0H28.2353V3.52941H17.6471V10.5882H10.5882V16.5565L0 21.8506V60H60V21.8506L49.4118 16.5565ZM21.1765 7.05882H38.8235V10.5882H21.1765V7.05882ZM3.52941 56.4706V24.0318L10.5882 20.5022V56.4706H3.52941ZM24.7059 56.4706V42.3529H35.2941V56.4706H24.7059ZM45.8824 56.4706H38.8235V38.8235H21.1765V56.4706H14.1176V14.1176H45.8824V56.4706ZM56.4706 56.4706H49.4118V20.5024L56.4706 24.0319V56.4706Z" fill="black"/>
<path d="M21.1765 31.7649H38.8236V35.2943H21.1765V31.7649Z" fill="black"/>
<path d="M21.1765 24.7056H38.8236V28.235H21.1765V24.7056Z" fill="black"/>
<path d="M21.1765 17.647H38.8236V21.1764H21.1765V17.647Z" fill="black"/>
</svg>
