<svg width="45" height="45" viewBox="0 0 45 45" fill="none" xmlns="http://www.w3.org/2000/svg">
<g clip-path="url(#clip0)">
<path d="M42.3633 17.3849V16.9481C42.3633 13.7839 40.095 11.1366 37.0898 10.5278V7.81885H34.4531V10.5278C31.448 11.1366 29.1797 13.7839 29.1797 16.9481V17.3849H0V44.7289H45V17.3849H42.3633ZM31.8164 16.9481C31.8164 14.7804 33.5907 13.0168 35.7715 13.0168C37.9523 13.0168 39.7266 14.7804 39.7266 16.9481V17.3849H31.8164V16.9481ZM42.3633 42.108H2.63672V25.2474H42.3633V42.108ZM2.63672 22.6265V20.0057H42.3633V22.6265H2.63672Z" fill="#2F28E8"/>
<path d="M23.8184 0H0V14.764H23.8184V0ZM21.1816 6.07159H16.7578V2.62083H21.1816V6.07159ZM9.69724 6.07159V2.62083H14.1211V6.07159H9.69724ZM14.1211 8.69242V12.1432H9.69724V8.69242H14.1211ZM7.06052 2.62083V6.07159H2.63672V2.62083H7.06052ZM2.63672 8.69242H7.06052V12.1432H2.63672V8.69242ZM16.7578 12.1432V8.69242H21.1816V12.1432H16.7578Z" fill="#2F28E8"/>
<path d="M20.3518 34.9882H24.6482V38.6571H27.2849V28.6985H24.6482V32.3674H20.3518V28.6985H17.7151V38.6571H20.3518V34.9882Z" fill="#2F28E8"/>
</g>
<defs>
<clipPath id="clip0">
<rect width="45" height="44.7288" fill="white"/>
</clipPath>
</defs>
</svg>
