<svg width="45" height="45" viewBox="0 0 45 45" fill="none" xmlns="http://www.w3.org/2000/svg">
<g clip-path="url(#clip0)">
<path d="M35.6836 22.3644C35.6836 15.1388 29.7694 9.26025 22.5 9.26025C15.2306 9.26025 9.31641 15.1388 9.31641 22.3644C9.31641 29.59 15.2306 35.4686 22.5 35.4686C29.7694 35.4686 35.6836 29.59 35.6836 22.3644ZM19.9758 30.1717C19.1903 28.4151 18.7066 26.144 18.5796 23.6748H26.4202C26.2933 26.1439 25.8096 28.415 25.024 30.1717C24.286 31.8224 23.3188 32.8477 22.5 32.8477C21.6811 32.8477 20.7139 31.8224 19.9758 30.1717ZM22.5 11.8811C23.3188 11.8811 24.286 12.9064 25.0241 14.5572C25.8097 16.3138 26.2933 18.585 26.4203 21.054H18.5797C18.7066 18.5849 19.1904 16.3138 19.9759 14.5572C20.7139 12.9064 21.6811 11.8811 22.5 11.8811ZM27.1886 31.7529C27.2725 31.5858 27.3543 31.4137 27.4337 31.2361C28.3614 29.161 28.9268 26.5141 29.0604 23.6748H32.9647C32.5179 27.22 30.283 30.22 27.1886 31.7529ZM32.9647 21.054H29.0604C28.9268 18.2148 28.3615 15.5678 27.4337 13.4927C27.3543 13.3151 27.2725 13.143 27.1886 12.9759C30.283 14.5088 32.5179 17.5088 32.9647 21.054ZM17.8113 12.9759C17.7275 13.143 17.6457 13.3151 17.5663 13.4927C16.6385 15.5678 16.073 18.2148 15.9395 21.054H12.0353C12.4821 17.5088 14.717 14.5089 17.8113 12.9759ZM12.0354 23.6748H15.9396C16.0732 26.5141 16.6386 29.161 17.5663 31.2361C17.6458 31.4137 17.7275 31.5858 17.8114 31.7529C14.717 30.2199 12.4821 27.22 12.0354 23.6748Z" fill="#2F28E8"/>
<path d="M4.39453 8.7361C5.12692 8.7361 5.81748 8.55605 6.42533 8.2398L9.45457 11.2508C9.712 11.5067 10.0493 11.6346 10.3867 11.6346C10.7242 11.6346 11.0616 11.5066 11.3189 11.2508C14.3107 8.27711 18.2815 6.63944 22.5 6.63944C23.2281 6.63944 23.8184 6.05272 23.8184 5.32902C23.8184 4.60532 23.2281 4.01861 22.5 4.01861C18.0184 4.01861 13.7766 5.6022 10.4193 8.50328L8.28976 6.38661C8.60801 5.78234 8.78906 5.09603 8.78906 4.36805C8.78906 1.95951 6.81768 0 4.39453 0C1.97139 0 0 1.95951 0 4.36805C0 6.77659 1.97139 8.7361 4.39453 8.7361ZM4.39453 2.62083C5.36379 2.62083 6.15234 3.40463 6.15234 4.36805C6.15234 5.33147 5.36379 6.11527 4.39453 6.11527C3.42527 6.11527 2.63672 5.33147 2.63672 4.36805C2.63672 3.40463 3.42527 2.62083 4.39453 2.62083Z" fill="#2F28E8"/>
<path d="M40.6055 35.9927C39.8731 35.9927 39.1825 36.1726 38.5747 36.489L35.5454 33.478C35.0307 32.9663 34.1959 32.9663 33.681 33.478C30.6893 36.4517 26.7184 38.0894 22.5 38.0894C21.7719 38.0894 21.1816 38.6761 21.1816 39.3998C21.1816 40.1235 21.7719 40.7102 22.5 40.7102C26.9816 40.7102 31.2234 39.1266 34.5807 36.2255L36.7102 38.3422C36.392 38.9464 36.2109 39.6328 36.2109 40.3607C36.2109 42.7693 38.1823 44.7288 40.6055 44.7288C43.0286 44.7288 45 42.7693 45 40.3607C45 37.9522 43.0286 35.9927 40.6055 35.9927ZM40.6055 42.108C39.6362 42.108 38.8477 41.3242 38.8477 40.3607C38.8477 39.3973 39.6362 38.6135 40.6055 38.6135C41.5747 38.6135 42.3633 39.3973 42.3633 40.3607C42.3633 41.3242 41.5747 42.108 40.6055 42.108Z" fill="#2F28E8"/>
<path d="M6.67969 22.3644C6.67969 21.6407 6.08941 21.054 5.36133 21.054C4.63324 21.054 4.04297 21.6407 4.04297 22.3644C4.04297 26.819 5.63616 31.0352 8.55483 34.3723L6.42533 36.489C5.81748 36.1727 5.12692 35.9927 4.39453 35.9927C1.97139 35.9927 0 37.9522 0 40.3607C0 42.7693 1.97139 44.7288 4.39453 44.7288C6.81768 44.7288 8.78906 42.7693 8.78906 40.3607C8.78906 39.6328 8.60801 38.9464 8.28976 38.3422L11.319 35.3312C11.8339 34.8195 11.8339 33.9898 11.319 33.478C8.32729 30.5043 6.67969 26.5573 6.67969 22.3644ZM4.39453 42.108C3.42527 42.108 2.63672 41.3242 2.63672 40.3607C2.63672 39.3973 3.42527 38.6135 4.39453 38.6135C5.36379 38.6135 6.15234 39.3973 6.15234 40.3607C6.15234 41.3242 5.36379 42.108 4.39453 42.108Z" fill="#2F28E8"/>
<path d="M38.3203 22.3644C38.3203 23.0881 38.9106 23.6748 39.6387 23.6748C40.3668 23.6748 40.957 23.0881 40.957 22.3644C40.957 17.9098 39.3638 13.6936 36.4452 10.3565L38.5747 8.2398C39.1825 8.55605 39.8731 8.7361 40.6055 8.7361C43.0286 8.7361 45 6.77659 45 4.36805C45 1.95951 43.0286 0 40.6055 0C38.1823 0 36.2109 1.95951 36.2109 4.36805C36.2109 5.09603 36.392 5.78234 36.7102 6.38661L33.681 9.3976C33.1661 9.90927 33.1661 10.739 33.681 11.2508C36.6727 14.2245 38.3203 18.1714 38.3203 22.3644ZM40.6055 2.62083C41.5747 2.62083 42.3633 3.40463 42.3633 4.36805C42.3633 5.33147 41.5747 6.11527 40.6055 6.11527C39.6362 6.11527 38.8477 5.33147 38.8477 4.36805C38.8477 3.40463 39.6362 2.62083 40.6055 2.62083Z" fill="#2F28E8"/>
</g>
<defs>
<clipPath id="clip0">
<rect width="45" height="44.7288" fill="white"/>
</clipPath>
</defs>
</svg>
