<svg width="45" height="43" viewBox="0 0 45 43" fill="none" xmlns="http://www.w3.org/2000/svg">
<g clip-path="url(#clip0)">
<path d="M6.76758 16.9555L18.944 11.2615L6.76758 5.56738V16.9555ZM9.4043 9.55753L13.0482 11.2615L9.4043 12.9654V9.55753Z" fill="#2F28E8"/>
<path d="M7.91543 25.531L3.62364 29.5448L5.48807 31.2886L6.03334 30.7786C6.97412 34.5833 9.04667 38.1042 12.0136 40.879L12.9458 41.7509L14.8102 40.0072L13.8779 39.1353C7.72383 33.3794 8.2459 26.8044 7.91543 25.531Z" fill="#2F28E8"/>
<path d="M27.8613 10.0284C26.5203 10.0284 25.1962 10.173 23.9062 10.4592V0H0V22.3584H11.1833C10.8773 23.5648 10.7227 24.8032 10.7227 26.0574C10.7227 34.8957 18.4111 42.0863 27.8613 42.0863C37.3116 42.0863 45 34.8957 45 26.0574C45 17.219 37.3116 10.0284 27.8613 10.0284ZM42.3633 26.0574C42.3633 28.2665 41.7953 30.3538 40.7893 32.1987C40.1843 32.087 39.7266 31.5874 39.7266 30.9893C39.7266 28.9497 37.9523 27.2904 35.7715 27.2904H33.1348C32.4078 27.2904 31.8164 26.7372 31.8164 26.0574C31.8164 25.3775 32.4078 24.8244 33.1348 24.8244C35.3156 24.8244 37.0898 23.165 37.0898 21.1254C37.0898 19.0857 35.3156 17.4264 33.1348 17.4264H31.8164C30.3625 17.4264 29.1797 16.3201 29.1797 14.9604C29.1797 14.0129 29.7617 13.1582 30.6544 12.7478C37.3189 13.9689 42.3633 19.4721 42.3633 26.0574ZM2.63672 2.466H21.2695V19.8924H2.63672V2.466ZM13.9076 29.7564H19.9512C20.6781 29.7564 21.2695 30.3095 21.2695 30.9893V32.2223H25.2246C25.9516 32.2223 26.543 32.7755 26.543 33.4553C26.543 34.1352 25.9516 34.6883 25.2246 34.6883C23.1324 34.6883 21.4154 36.2159 21.2793 38.141C17.726 36.4412 15.0166 33.4104 13.9076 29.7564ZM27.8613 39.6203C26.4908 39.6203 25.164 39.4415 23.9062 39.1076V38.3873C23.9062 37.7075 24.4977 37.1543 25.2246 37.1543C27.4054 37.1543 29.1797 35.495 29.1797 33.4553C29.1797 31.4157 27.4054 29.7564 25.2246 29.7564H23.6804C23.1363 28.3211 21.67 27.2904 19.9512 27.2904H13.4199C13.3806 26.8841 13.3594 26.473 13.3594 26.0574C13.3594 24.7972 13.5434 23.5567 13.9072 22.3584H23.9062V13.0067C24.9913 12.7185 26.109 12.5511 27.2441 12.5065C26.7953 13.2376 26.543 14.079 26.543 14.9604C26.543 17.6799 28.9086 19.8924 31.8164 19.8924H33.1348C33.8617 19.8924 34.4531 20.4455 34.4531 21.1254C34.4531 21.8052 33.8617 22.3584 33.1348 22.3584C30.9539 22.3584 29.1797 24.0177 29.1797 26.0574C29.1797 28.097 30.9539 29.7564 33.1348 29.7564H35.7715C36.4984 29.7564 37.0898 30.3095 37.0898 30.9893C37.0898 32.4604 38.013 33.7334 39.3457 34.329C36.6916 37.5448 32.531 39.6203 27.8613 39.6203Z" fill="#2F28E8"/>
<path d="M42.3633 13.2388V7.56243H39.7266V8.28357C36.1847 6.2155 32.0571 5.09644 27.8613 5.09644H26.543V7.56243H27.8613C36.5646 7.56243 41.1658 12.5563 42.3633 13.2388Z" fill="#2F28E8"/>
</g>
<defs>
<clipPath id="clip0">
<rect width="45" height="42.0863" fill="white"/>
</clipPath>
</defs>
</svg>
