<svg width="45" height="44" viewBox="0 0 45 44" fill="none" xmlns="http://www.w3.org/2000/svg">
<g clip-path="url(#clip0)">
<path d="M38.41 6.30913C34.1602 2.24068 28.51 0 22.5 0C16.49 0 10.8398 2.24068 6.59004 6.30913C2.34044 10.3778 0 15.7871 0 21.5409C0 27.2947 2.34044 32.7041 6.59004 36.7727C10.8398 40.8411 16.49 43.0818 22.5 43.0818C28.51 43.0818 34.1602 40.8411 38.41 36.7727C42.6596 32.7041 45 27.2947 45 21.5409C45 15.7871 42.6596 10.3778 38.41 6.30913ZM36.5454 34.9877C32.7938 38.5794 27.8057 40.5575 22.5 40.5575C17.1943 40.5575 12.2063 38.5794 8.45455 34.9877C4.70285 31.3959 2.63672 26.6204 2.63672 21.5409C2.63672 16.4614 4.70285 11.6859 8.45455 8.09417C12.2063 4.50239 17.1943 2.52433 22.5 2.52433C27.8057 2.52433 32.7938 4.50239 36.5454 8.09417C40.2971 11.6859 42.3633 16.4614 42.3633 21.5409C42.3633 26.6204 40.2971 31.3959 36.5454 34.9877Z" fill="#2F28E8"/>
<path d="M28.06 16.2178V8.78662H16.9399V16.2178H9.1778V26.864H16.9399V34.2952H28.06V26.864H35.8221V16.2178H28.06ZM33.1855 24.3397H25.4234V31.7709H19.5767V24.3397H11.8146V18.7421H19.5767V11.3109H25.4234V18.7421H33.1855V24.3397Z" fill="#2F28E8"/>
</g>
<defs>
<clipPath id="clip0">
<rect width="45" height="43.0818" fill="white"/>
</clipPath>
</defs>
</svg>
