<svg width="60" height="60" viewBox="0 0 60 60" fill="none" xmlns="http://www.w3.org/2000/svg">
<g clip-path="url(#clip0)">
<path d="M30 21.1572C27.0794 21.1572 24.7033 23.5332 24.7033 26.4539C24.9942 33.4808 35.0069 33.4787 35.2967 26.4539C35.2967 23.5332 32.9207 21.1572 30 21.1572ZM30 28.2195C29.0265 28.2195 28.2344 27.4275 28.2344 26.4539C28.3314 24.1116 31.669 24.1123 31.7656 26.4539C31.7656 27.4275 30.9735 28.2195 30 28.2195Z" fill="black"/>
<path d="M45.854 28.3413C45.4108 17.4144 39.8877 7.35996 31.0593 0.794507L30 0L28.9406 0.794507C20.1127 7.35925 14.5889 17.4151 14.146 28.3413C8.14716 29.185 3.51642 34.3508 3.51642 40.5787V45.8754H14.1098H17.641V52.9377H21.1721V56.4689H24.7033V52.9377H28.2344V60H31.7656V52.9377H35.2967V56.4689H38.8278V52.9377H42.359V45.8754H45.8901H56.4836V40.5787C56.4836 34.3508 51.8529 29.185 45.854 28.3413ZM30 4.44559C33.3867 7.19105 36.145 10.4657 38.1908 14.0951H21.8091C23.855 10.4657 26.6133 7.19105 30 4.44559ZM14.1098 42.3443H7.04756V40.5787C7.04756 36.3156 10.0854 32.7486 14.1098 31.9282V42.3443ZM38.8278 49.4066H21.1721V45.8754H38.8278V49.4066ZM42.359 42.3443H17.641V29.9853C17.641 25.6767 18.488 21.4982 20.0897 17.6263H39.9104C41.512 21.4982 42.3591 25.6767 42.3591 29.9853V42.3443H42.359ZM52.9524 42.3443H45.8901V31.9282C49.9145 32.7486 52.9524 36.3157 52.9524 40.5787V42.3443Z" fill="black"/>
</g>
<defs>
<clipPath id="clip0">
<rect width="60" height="60" fill="white"/>
</clipPath>
</defs>
</svg>
