<svg width="43" height="45" viewBox="0 0 43 45" fill="none" xmlns="http://www.w3.org/2000/svg">
<path d="M30.1221 34.9097L27.7299 32.2203L25.7545 33.9563L30.037 38.7706L36.9733 31.6291L35.0763 29.8088L30.1221 34.9097Z" fill="#2F28E8"/>
<path d="M31.4714 23.1797C31.231 23.1797 30.9927 23.1883 30.7562 23.2037L29.9917 10.1969H23.7533V7.66779C23.7532 3.43977 20.2926 0 16.0389 0C11.7852 0 8.32463 3.43977 8.32463 7.66779V10.1969H2.08612L0.700434 33.7734C0.592592 35.6091 1.23226 37.3568 2.50167 38.6944C3.77108 40.0319 5.489 40.7686 7.33893 40.7686H23.0813C25.0708 43.1843 28.0929 44.7288 31.4714 44.7288C37.4485 44.7288 42.3113 39.8954 42.3113 33.9543C42.3113 28.0131 37.4485 23.1797 31.4714 23.1797ZM10.9613 7.66779C10.9613 4.8849 13.2391 2.62084 16.0388 2.62084C18.8386 2.62084 21.1165 4.8849 21.1165 7.66779V10.1969H10.9613V7.66779ZM7.33893 38.1477C6.22254 38.1477 5.18578 37.7032 4.41972 36.8959C3.65366 36.0887 3.26764 35.034 3.33268 33.9263L4.57326 12.8178H8.32454V16.1016H10.9613V12.8178H21.1165V16.1016H23.7532V12.8178H27.5045L28.144 23.6997C23.7898 25.0989 20.6316 29.1666 20.6316 33.9544C20.6316 35.441 20.9361 36.8583 21.4863 38.1478H7.33893V38.1477ZM31.4714 42.108C26.9482 42.108 23.2683 38.4503 23.2683 33.9543C23.2683 29.4582 26.9482 25.8005 31.4714 25.8005C35.9946 25.8005 39.6746 29.4582 39.6746 33.9543C39.6746 38.4503 35.9946 42.108 31.4714 42.108Z" fill="#2F28E8"/>
</svg>
