<svg width="60" height="60" viewBox="0 0 60 60" fill="none" xmlns="http://www.w3.org/2000/svg">
<g clip-path="url(#clip0)">
<path d="M60 33.3562H32.0418V55.1407H44.2369L53.3029 60.0004H59.7883L57.3047 55.1405H60V33.3562ZM56.4844 51.6249H51.5601L53.99 56.3798L45.1198 51.6249H35.5574V36.8718H56.4844V51.6249Z" fill="black"/>
<path d="M15.332 0C6.87785 0 0 6.87785 0 15.3321C0 23.7862 6.87785 30.6641 15.332 30.6641C23.7862 30.6641 30.6641 23.7862 30.6641 15.3321C30.6641 6.87785 23.7862 0 15.332 0V0ZM25.8547 9.95895H22.073C21.5527 7.93676 20.7411 6.03598 19.6788 4.34402C22.3532 5.40574 24.5513 7.41668 25.8547 9.95895ZM15.3457 4.38879C16.7127 5.93719 17.7613 7.84723 18.4225 9.95895H12.2688C12.9301 7.84723 13.9787 5.93719 15.3457 4.38879ZM11.0214 4.32973C9.95473 6.0252 9.14016 7.93113 8.61844 9.95895H4.80938C6.11871 7.4052 8.33074 5.3877 11.0214 4.32973ZM3.6641 17.2022C3.56684 16.5929 3.51562 15.9684 3.51562 15.3321C3.51562 14.7002 3.56602 14.08 3.66211 13.4746H8.02359C7.91602 14.7171 7.91742 15.9596 8.02769 17.2022H3.6641ZM4.81605 20.7178H8.62992C9.1568 22.7468 9.97711 24.6517 11.0501 26.3453C8.3509 25.2922 6.13078 23.2745 4.81605 20.7178ZM15.3457 26.2399C13.9883 24.7032 12.9454 22.8109 12.2835 20.7178H18.4079C17.7459 22.8109 16.703 24.7032 15.3457 26.2399ZM19.1339 17.2022H11.5574C11.4287 15.9598 11.427 14.7172 11.5522 13.4746H19.1392C19.2643 14.7172 19.2627 15.9598 19.1339 17.2022ZM19.6499 26.3316C20.7186 24.6415 21.536 22.7413 22.0615 20.7178H25.848C24.5391 23.2632 22.3329 25.2746 19.6499 26.3316ZM27.1485 15.3321C27.1485 15.9684 27.0973 16.5929 27 17.2022H22.6637C22.7741 15.9598 22.7754 14.7172 22.6678 13.4746H27.0021C27.0981 14.08 27.1485 14.7002 27.1485 15.3321Z" fill="black"/>
<path d="M42.8446 13.4156V19.2374L39.5871 16.6812L37.4168 19.4469L44.6023 25.0857L51.7877 19.4469L49.6173 16.6812L46.3601 19.2374V13.4156C46.3601 9.29564 43.0082 5.94385 38.8882 5.94385H33.7873V9.45947H38.8882C41.0698 9.45947 42.8446 11.2343 42.8446 13.4156Z" fill="black"/>
<path d="M17.1554 46.5842V40.7624L20.4129 43.3186L22.5832 40.5529L15.3977 34.9141L8.21227 40.5529L10.3827 43.3186L13.6399 40.7624V46.5842C13.6399 50.7041 16.9918 54.0559 21.1118 54.0559H26.2127V50.5403H21.1118C18.9302 50.5403 17.1554 48.7655 17.1554 46.5842Z" fill="black"/>
</g>
<defs>
<clipPath id="clip0">
<rect width="60" height="60" fill="white"/>
</clipPath>
</defs>
</svg>
