<?xml version="1.0"?>
<svg xmlns="http://www.w3.org/2000/svg" viewBox="0 0 512 512" width="512" height="512"><g id="outline"><path d="M256,376a31.789,31.789,0,0,1,22.627,9.373l11.314-11.314a48,48,0,0,0-67.882,0l11.314,11.314A31.789,31.789,0,0,1,256,376Z"/><path d="M239.029,391.03l11.315,11.313a8,8,0,0,1,11.312,0l11.315-11.313a24,24,0,0,0-33.942,0Z"/><path d="M454.226,310.059a48,48,0,0,0-67.883,0l11.314,11.314a32,32,0,0,1,45.254,0Z"/><path d="M403.313,327.03l11.315,11.313a8,8,0,0,1,11.313,0l11.314-11.313a24,24,0,0,0-33.942,0Z"/><circle cx="256" cy="416" r="8.5"/><path d="M184,96H328a8,8,0,0,0,8-8V38a14.015,14.015,0,0,0-14-14H190a14.015,14.015,0,0,0-14,14V88A8,8,0,0,0,184,96ZM288,80H224V72h64ZM192,40H320V80H304V64a8,8,0,0,0-8-8H216a8,8,0,0,0-8,8V80H192Z"/><path d="M480,120H384a16.019,16.019,0,0,0-16,16v16H336a8,8,0,0,0-7.353,4.849l-18.2,42.477A55.858,55.858,0,0,0,280,184.573V168a8,8,0,0,0-3.562-6.656L232,131.719V112H216v24a8,8,0,0,0,3.562,6.656L264,172.281v12.3a55.616,55.616,0,0,0-21.026,7.481l-45.852-38.21A8,8,0,0,0,192,152H128V112a16.019,16.019,0,0,0-16-16H32a16.019,16.019,0,0,0-16,16V232a8,8,0,0,0,8,8h96a8,8,0,0,0,8-8V168h61.1l41.343,34.453a56.224,56.224,0,0,0-5.152,6.636,40.04,40.04,0,0,0-46.623,24.517A55.95,55.95,0,0,0,136.581,296H120a8,8,0,0,0-6.4,3.2L93.237,326.35l-9.268-5.3a8,8,0,0,0-7.938,0l-56,32A8,8,0,0,0,24,368v64a8,8,0,0,0,8,8h96a8,8,0,0,0,8-8V368a8,8,0,0,0,3.969-14.946l-32.732-18.7L124,312h17.414A56.069,56.069,0,0,0,192,344h8V466a22.025,22.025,0,0,0,22,22h68a22.025,22.025,0,0,0,22-22V344h8a56,56,0,0,0,7.5-111.5,55.561,55.561,0,0,0-5.931-18.518L341.275,168H368v32a16.019,16.019,0,0,0,16,16h20.9l-4.49,13.47A8,8,0,0,0,408,240h48a8,8,0,0,0,7.589-10.53L459.1,216H480a16.019,16.019,0,0,0,16-16V136A16.019,16.019,0,0,0,480,120ZM112,224H32V208h80Zm0-32H32V112h80ZM80,337.214,105.875,352H54.125ZM88,424H72V400H88Zm32-56v56H104V392a8,8,0,0,0-8-8H64a8,8,0,0,0-8,8v32H40V368ZM272,248a8,8,0,1,1-8,8A8.009,8.009,0,0,1,272,248Zm24,218a6.006,6.006,0,0,1-6,6H222a6.006,6.006,0,0,1-6-6V456h80Zm0-26H216V344h80Zm0-112H216V318a6.006,6.006,0,0,1,6-6h68a6.006,6.006,0,0,1,6,6Zm64-40a40.045,40.045,0,0,1-40,40h-8V318a22.025,22.025,0,0,0-22-22H222a22.025,22.025,0,0,0-22,22v10h-8a40,40,0,0,1-5.938-79.559,8,8,0,0,0,6.6-6.051,24,24,0,0,1,33.05-16.334,8,8,0,0,0,10.415-3.764A39.758,39.758,0,0,1,264,200.806v32.57a24,24,0,1,0,16,0V200.805A40.067,40.067,0,0,1,312,240a8,8,0,0,0,8,8A40.045,40.045,0,0,1,360,288Zm24-152h96l.006,40H384Zm35.1,88,2.666-8h20.468l2.666,8ZM480,200H384v-8h96.009v8Z"/><path d="M72,184a32,32,0,1,0-32-32A32.036,32.036,0,0,0,72,184Zm0-48a16,16,0,1,1-16,16A16.019,16.019,0,0,1,72,136Z"/><rect x="184" y="264" width="16" height="16"/><rect x="216" y="264" width="16" height="16"/><rect x="312" y="264" width="16" height="16"/><path d="M489.94,384.239l-28.731-7.183a3.632,3.632,0,0,0-.458-.352l-14.095-21.142A8,8,0,0,0,440,352H384a8,8,0,0,0-6.656,3.562l-16,24A7.993,7.993,0,0,0,360,384v40a8,8,0,0,0,8,8h9.376a24,24,0,0,0,45.248,0h10.752a24,24,0,0,0,45.248,0H488a8,8,0,0,0,8-8V392A8,8,0,0,0,489.94,384.239ZM441.052,376H416v-8h19.719Zm-52.771-8H400v8H382.948ZM400,432a8,8,0,1,1,8-8A8.009,8.009,0,0,1,400,432Zm56,0a8,8,0,1,1,8-8A8.009,8.009,0,0,1,456,432Zm24-16h-1.376a24,24,0,0,0-45.248,0H422.624a24,24,0,0,0-45.248,0H376V392h79.015L480,398.246Z"/></g></svg>
