<svg id="Layer_1_1_" enable-background="new 0 0 64 64" height="512" viewBox="0 0 64 64" width="512" xmlns="http://www.w3.org/2000/svg"><path d="m45 54h7v2h-7z"/><path d="m36 27.75c.965 0 1.75-.785 1.75-1.75s-.785-1.75-1.75-1.75-1.75.785-1.75 1.75.785 1.75 1.75 1.75zm0-2c.138 0 .25.112.25.25 0 .275-.5.275-.5 0 0-.138.112-.25.25-.25z"/><path d="m46 27.75c.965 0 1.75-.785 1.75-1.75s-.785-1.75-1.75-1.75-1.75.785-1.75 1.75.785 1.75 1.75 1.75zm0-2c.138 0 .25.112.25.25 0 .275-.5.275-.5 0 0-.138.112-.25.25-.25z"/><path d="m41 34.75c2.068 0 3.75-1.683 3.75-3.75h-1.5c0 1.24-1.009 2.25-2.25 2.25s-2.25-1.01-2.25-2.25h-1.5c0 2.067 1.682 3.75 3.75 3.75z"/><path d="m62 35c0-2.206-1.794-4-4-4v-11.548c0-9.348-7.107-17.005-16.178-17.433-.291-.013-1.353-.013-1.643 0-9.072.428-16.179 8.085-16.179 17.433v11.548c-2.206 0-4 1.794-4 4 0 1.655 1.011 3.079 2.448 3.687-1.498 1.285-2.448 3.19-2.448 5.313 0 1.172.294 2.326.852 3.349.085.403.339 1.392.935 2.553l-.96 4.516-3.779-7.558.707-3.535c.221-1.105-.328-2.229-1.336-2.733-.967-.484-2.128-.293-2.893.47l-.766.766-6.722-2.688c-.907-.364-1.934-.253-2.744.296s-1.294 1.458-1.294 2.436c0 1.054.568 2.033 1.483 2.556l5.667 3.238 3.888 13.608c.123.43.516.726.962.726h9 38c.301 0 .585-.135.775-.368s.265-.539.205-.833l-2.176-10.555c.553-.877.992-1.803 1.292-2.763l.059-.192c.08-.264.176-.524.273-.785.268-.727.572-1.55.572-2.504 0-2.123-.95-4.028-2.448-5.313 1.437-.608 2.448-2.032 2.448-3.687zm-47.246 25-3.793-13.274c-.072-.251-.239-.464-.465-.594l-6.021-3.44c-.293-.169-.475-.482-.475-.82 0-.318.151-.604.415-.782s.585-.214.88-.095l7.333 2.934c.371.147.796.062 1.079-.222l1.232-1.232c.154-.153.39-.193.585-.095.204.102.314.329.27.552l-.774 3.872c-.044.218-.013.444.086.644l6.276 12.552zm7.508-2.713 2.073-9.755c.007-.034.013-.068.017-.104.042-.402.32-.737.646-.838l6.291-1.466 1.523 5.159c.128.435.526.717.959.717.088 0 .178-.012.267-.036l5.962-1.65v10.686h-11v-4h-2v4h-3.382zm12.794-13.04c.054.206.15.398.319.535l3.471 2.777-4.395 1.216-1.211-4.105zm-4.056-22.247h7.096c2.758 0 5.151-1.869 5.813-4.514l1.086-3.814 1.278 4.54c.547 2.19 2.482 3.722 4.728 3.778v5.01c0 5.514-4.486 10-10 10s-10-4.486-10-10v-5zm15.625 22.781c.167-.134.261-.322.317-.524l1.739.422-1.522 4.096-4.037-1.193zm-5.625-5.781c1.404 0 2.747-.255 4-.7v5.22l-4 3.2-4-3.2v-5.22c1.253.445 2.596.7 4 .7zm14 21v-4h-2v4h-11v-10.662l5.488 1.621c.503.151 1.037-.117 1.221-.61l1.929-5.193 5.845 1.42c.388.116.666.451.723.95l2.567 12.474zm3-23h-3c-.552 0-1 .447-1 1s.448 1 1 1c2.757 0 5 2.243 5 5 0 .597-.218 1.186-.448 1.81-.111.3-.221.6-.313.904l-.051.166c-.013.041-.035.08-.048.12-.2-1.106-.995-2.014-2.133-2.355l-10.007-2.431v-4.837c3.581-2.079 6-5.946 6-10.376v-5h1v-2h-2.877c-1.379 0-2.576-.935-2.918-2.301l-2.243-7.97c-.121-.431-.513-.729-.961-.73h-.001c-.447 0-.839.297-.962.727l-2.062 7.244c-.446 1.783-2.041 3.029-3.88 3.029h-10.096v2h1v5c0 4.43 2.419 8.298 6 10.376v4.83l-10.517 2.453c-.865.261-1.546.886-1.891 1.686-.383-.719-.592-1.524-.592-2.345 0-2.757 2.243-5 5-5 .552 0 1-.447 1-1s-.448-1-1-1h-3c-1.103 0-2-.897-2-2s.897-2 2-2h1c.552 0 1-.447 1-1v-12.548c0-8.278 6.27-15.058 14.275-15.435.224-.012 1.225-.012 1.451 0 8.004.378 14.274 7.157 14.274 15.435v12.548c0 .553.448 1 1 1h1c1.103 0 2 .897 2 2s-.897 2-2 2z"/><path d="m17 22h2v3h-2z"/><path d="m14 20h3v2h-3z"/><path d="m17 17h2v3h-2z"/><path d="m19 20h3v2h-3z"/><path d="m5 12h2v3h-2z"/><path d="m2 10h3v2h-3z"/><path d="m5 7h2v3h-2z"/><path d="m7 10h3v2h-3z"/><path d="m15 10h2v2h-2z"/><path d="m4 21h2v2h-2z"/><path d="m10 28h2v2h-2z"/></svg>