<svg id="Capa_1" enable-background="new 0 0 512 512" height="512" viewBox="0 0 512 512" width="512" xmlns="http://www.w3.org/2000/svg"><g><path d="m502.708 363.584-9.627-4.813-216.957 108.478c-12.452 6.308-27.796 6.308-40.248 0l-216.957-108.478-9.627 4.813c-5.082 2.54-8.292 7.734-8.292 13.416s3.21 10.876 8.292 13.416l240 120c4.222 2.112 9.194 2.112 13.416 0l240-120c5.082-2.54 8.292-7.734 8.292-13.416s-3.21-10.876-8.292-13.416z"/><path d="m502.708 293.584-9.627-4.813-216.957 108.478c-12.452 6.308-27.796 6.308-40.248 0l-216.957-108.478-9.627 4.813c-5.082 2.54-8.292 7.734-8.292 13.416s3.21 10.876 8.292 13.416l240 120c4.222 2.112 9.194 2.112 13.416 0l240-120c5.082-2.54 8.292-7.734 8.292-13.416s-3.21-10.876-8.292-13.416z"/><path d="m124.087 176.519 30 51.962c4.142 7.174 13.316 9.633 20.491 5.49l12.352-7.132c7.49 5.679 15.535 10.359 24.07 14v14.161c0 8.284 6.716 15 15 15h60c8.284 0 15-6.716 15-15v-14.161c8.535-3.641 16.58-8.321 24.07-14l12.352 7.132c7.174 4.142 16.348 1.684 20.49-5.49l30-51.962c4.142-7.174 1.684-16.348-5.49-20.49l-12.3-7.102c.584-4.671.878-9.327.878-13.927s-.294-9.256-.877-13.927l12.3-7.102c7.174-4.142 9.632-13.316 5.49-20.49l-30-51.962c-4.142-7.174-13.316-9.633-20.49-5.49l-12.353 7.131c-7.488-5.678-15.535-10.359-24.07-14v-14.16c0-8.284-6.716-15-15-15h-60c-8.284 0-15 6.716-15 15v14.16c-8.535 3.641-16.582 8.322-24.07 14l-12.352-7.132c-7.174-4.142-16.348-1.684-20.49 5.49l-30 51.962c-4.142 7.174-1.684 16.348 5.49 20.49l12.3 7.102c-.584 4.672-.878 9.328-.878 13.928s.294 9.256.877 13.927l-12.3 7.102c-7.174 4.142-9.632 13.316-5.49 20.49zm131.913-86.519c24.813 0 45 20.187 45 45s-20.187 45-45 45-45-20.187-45-45 20.187-45 45-45z"/><path d="m9.292 250.416 240 120c4.222 2.112 9.194 2.112 13.416 0l240-120c5.082-2.54 8.292-7.734 8.292-13.416s-3.21-10.876-8.292-13.416l-84.508-42.254c-.991 3.487-2.413 6.909-4.305 10.187l-30.001 51.963c-8.012 13.879-22.951 22.503-38.985 22.503-.001 0 0 0-.001 0-5.018 0-9.994-.847-14.713-2.481-3.987 20.762-22.288 36.498-44.195 36.498h-60c-21.907 0-40.208-15.736-44.194-36.498-4.719 1.635-9.695 2.481-14.714 2.481-16.035 0-30.974-8.623-38.987-22.505l-29.999-51.958c-1.876-3.248-3.321-6.664-4.328-10.178l-84.486 42.242c-5.082 2.54-8.292 7.734-8.292 13.416s3.21 10.876 8.292 13.416z"/></g></svg>