<svg id="Capa_1" enable-background="new 0 0 512 512" height="512" viewBox="0 0 512 512" width="512" xmlns="http://www.w3.org/2000/svg"><g><path d="m350.23 141.258c-2.042-6.125-7.774-10.256-14.23-10.256h-160c-6.457 0-12.188 4.131-14.23 10.256l-20 60c-.51 1.53-.77 3.131-.77 4.744v140c0 8.284 6.716 15 15 15h200c8.284 0 15-6.716 15-15v-140c0-1.612-.26-3.214-.77-4.744zm-163.419 19.744h138.377l10 30h-158.377zm84.189 60v30h-30v-30zm70 110h-170v-110h40v45c0 8.284 6.716 15 15 15h60c8.284 0 15-6.716 15-15v-45h40z"/><path d="m502.736 286.395-27.385-11.343c1.103-12.654 1.099-25.399-.013-38.099l27.398-11.349c7.654-3.17 11.288-11.945 8.118-19.598l-39.294-94.865c-3.17-7.654-11.945-11.288-19.598-8.118l-27.398 11.349c-8.194-9.766-17.205-18.782-26.931-26.95l11.343-27.385c3.17-7.654-.464-16.428-8.118-19.598l-94.864-39.293c-7.654-3.17-16.428.464-19.598 8.118l-11.344 27.386c-12.653-1.103-25.399-1.099-38.099.013l-11.349-27.399c-3.17-7.654-11.945-11.288-19.598-8.118l-94.864 39.294c-7.654 3.17-11.288 11.945-8.118 19.598l11.349 27.399c-9.766 8.194-18.781 17.204-26.949 26.932l-27.386-11.344c-7.654-3.17-16.428.464-19.598 8.118l-39.294 94.863c-3.17 7.653.464 16.428 8.118 19.598l27.386 11.344c-1.103 12.653-1.099 25.4.012 38.099l-27.398 11.348c-7.654 3.17-11.288 11.945-8.118 19.598l39.294 94.865c3.17 7.654 11.945 11.288 19.598 8.118l27.399-11.349c8.195 9.766 17.204 18.781 26.931 26.949l-11.344 27.385c-3.17 7.654.464 16.428 8.118 19.598l94.864 39.295c7.654 3.17 16.428-.464 19.598-8.118l11.344-27.386c12.653 1.103 25.398 1.1 38.1-.012l11.349 27.399c3.17 7.654 11.945 11.288 19.598 8.118l94.864-39.294c7.653-3.17 11.288-11.945 8.118-19.598l-11.349-27.399c9.765-8.195 18.78-17.204 26.948-26.932l27.387 11.344c7.654 3.17 16.428-.464 19.598-8.118l39.293-94.864c3.17-7.654-.464-16.429-8.118-19.599zm-53.151 89.125-23.971-9.929c-6.323-2.619-13.618-.626-17.73 4.845-10.628 14.138-23.23 26.735-37.458 37.441-5.466 4.114-7.457 11.405-4.839 17.725l9.933 23.982-67.147 27.814-9.933-23.982c-2.618-6.321-9.181-10.069-15.955-9.112h-.001c-17.632 2.49-35.452 2.495-52.963.012-6.776-.961-13.344 2.788-15.963 9.111l-9.929 23.97-67.148-27.814 9.928-23.969c2.619-6.323.626-13.618-4.845-17.73-14.136-10.627-26.733-23.23-37.44-37.459-4.114-5.467-11.405-7.457-17.726-4.839l-23.982 9.934-27.813-67.148 23.982-9.934c6.32-2.618 10.069-9.181 9.112-15.955-2.49-17.633-2.495-35.452-.013-52.963.96-6.776-2.788-13.343-9.111-15.962l-23.969-9.929 27.813-67.147 23.97 9.928c6.323 2.619 13.617.626 17.73-4.844 10.628-14.138 23.232-26.735 37.46-37.441 5.467-4.114 7.457-11.405 4.839-17.726l-9.934-23.982 67.148-27.813 9.934 23.982c2.618 6.32 9.181 10.068 15.954 9.112h.001c17.633-2.491 35.453-2.494 52.963-.013 6.776.961 13.343-2.788 15.962-9.111l9.929-23.97 67.147 27.813-9.928 23.969c-2.619 6.323-.626 13.617 4.844 17.729 14.136 10.628 26.734 23.232 37.442 37.461 4.114 5.467 11.405 7.457 17.726 4.839l23.98-9.934 27.814 67.148-23.982 9.933c-6.321 2.618-10.069 9.182-9.112 15.956 2.491 17.632 2.495 35.451.014 52.962-.96 6.776 2.788 13.344 9.111 15.963l23.969 9.929z"/></g></svg>