<svg id="Layer_1" enable-background="new 0 0 512 512" height="512" viewBox="0 0 512 512" width="512" xmlns="http://www.w3.org/2000/svg"><g><g><path d="m349.712 57.953c-8.8 0-15.934 7.134-15.934 15.934s7.134 15.934 15.934 15.934c24.883 0 45.127 20.243 45.127 45.126 0 8.8 7.134 15.934 15.934 15.934s15.934-7.134 15.934-15.934c-.002-42.455-34.541-76.994-76.995-76.994z"/></g><g><path d="m349.712 0c-8.8 0-15.934 7.134-15.934 15.934s7.134 15.934 15.934 15.934c56.838 0 103.079 46.241 103.079 103.079 0 8.8 7.134 15.934 15.934 15.934s15.934-7.134 15.934-15.934c-.001-74.411-60.538-134.947-134.947-134.947z"/></g><g><circle cx="190.178" cy="295.767" r="46.852"/></g><g><path d="m319.674 187.614 25.604-25.604c6.223-6.223 6.223-16.311 0-22.533-6.222-6.223-16.311-6.223-22.533 0l-25.604 25.604-99.247-99.247c-4.585-4.585-12.107-4.31-16.339.603-38.89 45.152-49.088 107.706-31.926 161.887 12.607-7.608 27.504-11.789 43.396-11.225 40.621 1.441 73.816 34.201 75.779 74.801.758 15.673-3.121 30.398-10.347 42.966 53.359 15.744 114.177 5.044 158.432-33.124 4.904-4.229 5.167-11.746.588-16.325z"/></g><g><path d="m248.02 349.091c-14.393 15.601-34.992 25.395-57.841 25.395-22.669 0-43.118-9.645-57.495-25.032l-37.435 92.557h189.42z"/></g><g><path d="m333.953 473.878h-287.549c-10.51 0-19.061 8.551-19.061 19.061s8.551 19.061 19.061 19.061h287.55c10.509 0 19.06-8.551 19.06-19.061-.001-10.51-8.551-19.061-19.061-19.061z"/></g></g></svg>