<svg id="Capa_1" enable-background="new 0 0 511.993 511.993" height="512" viewBox="0 0 511.993 511.993" width="512" xmlns="http://www.w3.org/2000/svg"><g><path d="m211.646 270.896v-30h-20.46c-1.32-4.87-3.25-9.48-5.72-13.75l14.48-14.48-21.21-21.22-14.49 14.49c-4.27-2.47-8.88-4.41-13.75-5.72v-20.46h-30v20.46c-4.87 1.31-9.48 3.25-13.75 5.72l-14.49-14.49-21.21 21.22 14.48 14.48c-2.46 4.27-4.4 8.88-5.72 13.75h-20.46v30h20.46c1.32 4.87 3.26 9.48 5.72 13.76l-14.48 14.48 21.21 21.21 14.49-14.48c4.27 2.47 8.88 4.41 13.75 5.72v20.46h30v-20.46c4.87-1.31 9.48-3.25 13.75-5.72l14.49 14.48 21.21-21.21-14.48-14.48c2.47-4.27 4.4-8.89 5.72-13.76zm-76.15 12.681c-15.26 0-27.68-12.42-27.68-27.68s12.42-27.67 27.68-27.67 27.68 12.41 27.68 27.67c0 15.259-12.42 27.68-27.68 27.68z"/><path d="m300.346 240.896v30h20.46c1.32 4.87 3.26 9.48 5.72 13.76l-14.48 14.48 21.21 21.21 14.49-14.48c4.27 2.47 8.88 4.41 13.75 5.72v20.46h30v-20.46c4.87-1.31 9.48-3.25 13.75-5.72l14.49 14.48 21.21-21.21-14.48-14.48c2.47-4.27 4.4-8.89 5.72-13.76h20.46v-30h-20.46c-1.32-4.87-3.25-9.48-5.72-13.75l14.48-14.48-21.21-21.22-14.49 14.49c-4.27-2.47-8.88-4.41-13.75-5.72v-20.46h-30v20.46c-4.87 1.31-9.48 3.25-13.75 5.72l-14.49-14.49-21.21 21.22 14.48 14.48c-2.46 4.27-4.4 8.88-5.72 13.75zm76.15-12.67c15.26 0 27.68 12.41 27.68 27.67s-12.42 27.68-27.68 27.68-27.68-12.42-27.68-27.68 12.42-27.67 27.68-27.67z"/><path d="m511.946 252.526c-.91-35.58-15.67-68.84-41.55-93.67-25.72-24.67-59.54-38.26-95.21-38.26-10.41 0-18.88-8.47-18.88-18.88v-25.46l18.1 13.64 18.06-23.95-51.2-38.61-50.77 38.65 18.17 23.87 17.64-13.43v25.29c0 26.95 21.93 48.88 48.88 48.88 57.42 0 105.31 46.07 106.77 102.7.74 28.74-9.88 55.88-29.9 76.42-20.03 20.56-46.87 31.88-75.56 31.88-58.17 0-105.5-47.33-105.5-105.5v-.2c0-22.3-5.41-43.35-15-61.92-22.52-43.66-68.09-73.58-120.5-73.58-36.85 0-71.32 14.54-97.05 40.94-25.71 26.39-39.35 61.24-38.4 98.13.91 35.58 15.67 68.84 41.55 93.67 25.73 24.67 59.54 38.26 95.21 38.26 10.41 0 18.88 8.47 18.88 18.88v25.4l-18.02-13.58-18.06 23.95 51.2 38.61 50.77-38.65-18.18-23.87-17.71 13.49v-25.35c0-26.95-21.93-48.88-48.88-48.88-57.42 0-105.31-46.07-106.77-102.7-.74-28.74 9.88-55.88 29.9-76.42 20.03-20.56 46.87-31.88 75.56-31.88 58.17 0 105.5 47.33 105.5 105.5v.2c0 22.3 5.41 43.35 15 61.92 22.52 43.66 68.09 73.58 120.5 73.58 36.85 0 71.32-14.54 97.05-40.94 25.71-26.39 39.35-61.24 38.4-98.13z"/></g></svg>